:FULLY-SPECIFIED
:FORCE-ALL-JOINTS-BE-3DOF
:DEGREES
714
root -11.6995 13.9151 -38.3035 151.853 -61.713 -146.501
lfemur -65.8938 24.9739 -1.27042
ltibia 76.0425 -0 0
lfoot -8.64708 -7.96636 -0.000782607
ltoes -2.84492 0 0
rfemur 9.25246 -10.559 11.611
rtibia 40.1153 -0 0
rfoot -25.209 -26.6529 5.32202e-005
rtoes -29.0219 0 0
lowerback 12.2496 1.43731 8.85097
upperback -1.72801 3.48628 5.83091
thorax -8.62516 1.28805 0.633905
lowerneck -3.96221 4.91042 0.869766
upperneck 3.3602 6.4613 0.91329
head 1.7086 3.25301 0.310728
lclavicle -2.02512e-015 -1.09332e-014 0
lhumerus 62.8017 14.1633 106.853
lradius 11.675 -0 0
lwrist -76.5558 0 0
lhand -33.9104 42.1309 0.00138873
lfingers 7.12502 -0 0
lthumb -7.09303 71.9921 0.00133315
rclavicle -2.02512e-015 -1.09332e-014 0
rhumerus -75.3322 19.2526 -95.4048
rradius 114.615 -0 0
rwrist -66.6585 0 0
rhand -8.388 -40.5411 -0.00703258
rfingers 7.12502 -0 0
rthumb 17.516 -69.9646 0.0573957
715
root -11.718 13.9096 -38.3053 511.849 -61.7512 213.576
lfemur -66.0161 24.9842 -1.30683
ltibia 76.1435 0 0
lfoot -8.71061 -7.96159 0
ltoes -2.88111 0 0
rfemur 9.3032 -10.5604 11.633
rtibia 40.0015 0 0
rfoot -25.1857 -26.6837 0
rtoes -29.248 0 0
lowerback 12.2268 1.43666 8.87247
upperback -1.73131 3.4857 5.83519
thorax -8.61478 1.28691 0.627392
lowerneck -3.92437 4.90705 0.903776
upperneck 3.33837 6.45654 0.886993
head 1.69679 3.25039 0.29516
lclavicle -2.02512e-015 -1.09332e-014 0
lhumerus 62.8865 14.1686 106.961
lradius 11.6491 0 0
lwrist -76.7008 0 0
lhand -33.9026 41.9464 0
lfingers 7.12502 0 0
lthumb -7.08551 71.8078 0
rclavicle -2.02512e-015 -1.09332e-014 0
rhumerus -75.335 19.2364 -95.4169
rradius 114.536 0 0
rwrist -66.4644 0 0
rhand -8.09128 -40.2427 0
rfingers 7.12502 0 0
rthumb 17.821 -69.4462 0
716
root -11.7239 13.9067 -38.3094 151.844 -61.7863 -146.353
lfemur -66.1342 25.0057 -1.34578
ltibia 76.2515 -0 0
lfoot -8.78083 -7.96536 1.97415e-005
ltoes -2.91697 0 0
rfemur 9.35701 -10.5637 11.6488
rtibia 39.8971 -0 0
rfoot -25.1603 -26.7182 -0.000105808
rtoes -29.453 0 0
lowerback 12.2025 1.43458 8.89271
upperback -1.73494 3.4829 5.83943
thorax -8.6041 1.28479 0.621945
lowerneck -3.89281 4.90442 0.934318
upperneck 3.32354 6.45279 0.86266
head 1.68816 3.2483 0.281144
lclavicle -2.06239e-014 -4.17448e-015 0
lhumerus 62.9431 14.1708 107.009
lradius 11.637 -0 0
lwrist -76.7968 0 0
lhand -33.8885 41.7218 -0.00214196
lfingers 7.12502 -0 0
lthumb -7.07189 71.5836 -0.0020622
rclavicle -2.06239e-014 -4.17448e-015 0
rhumerus -75.34 19.2229 -95.4319
rradius 114.459 -0 0
rwrist -66.2514 0 0
rhand -7.76968 -39.93 0.000644302
rfingers 7.12502 -0 0
rthumb 18.1303 -69.1049 0.000862295
717
root -11.7299 13.9038 -38.3136 151.84 -61.8208 -146.291
lfemur -66.242 25.0317 -1.38384
ltibia 76.3503 -0 0
lfoot -8.84688 -7.9742 5.24459e-005
ltoes -2.94929 0 0
rfemur 9.40875 -10.5677 11.6645
rtibia 39.8034 -0 0
rfoot -25.1325 -26.7603 -0.000233491
rtoes -29.6403 0 0
lowerback 12.1761 1.43199 8.91155
upperback -1.73828 3.47887 5.84197
thorax -8.59191 1.28222 0.615703
lowerneck -3.86633 4.90143 0.961392
upperneck 3.31504 6.44852 0.841485
head 1.68227 3.24599 0.268967
lclavicle -2.06239e-014 -4.17448e-015 0
lhumerus 62.9793 14.17 107.008
lradius 11.6346 -0 0
lwrist -76.8631 0 0
lhand -33.8641 41.4595 -0.00456662
lfingers 7.12502 -0 0
lthumb -7.0483 71.3221 -0.00439489
rclavicle -2.06239e-014 -4.17448e-015 0
rhumerus -75.3446 19.2089 -95.4491
rradius 114.383 -0 0
rwrist -66.0351 0 0
rhand -7.44742 -39.6142 0.00146599
rfingers 7.12502 -0 0
rthumb 18.4403 -68.7598 0.00185957
